<svg xmlns="http://www.w3.org/2000/svg" width="256" height="256" viewBox="0 0 100 100"><rect width="100" height="100" rx="20" fill="#2d1600"></rect><path fill="#cba580" d="M50.89 82.73L27.24 82.73L27.24 17.27L50.13 17.27Q56.97 17.27 61.41 19.62Q65.85 21.97 68.03 25.92Q70.20 29.87 70.20 34.66L70.20 34.66Q70.20 38.88 68.71 41.63Q67.23 44.37 64.81 45.97Q62.40 47.57 59.59 48.34L59.59 48.34L59.59 48.98Q62.59 49.17 65.63 51.09Q68.66 53.00 70.71 56.58Q72.76 60.16 72.76 65.34L72.76 65.34Q72.76 70.26 70.52 74.19Q68.28 78.12 63.46 80.43Q58.63 82.73 50.89 82.73L50.89 82.73ZM35.17 52.94L35.17 75.70L50.89 75.70Q58.66 75.70 61.94 72.68Q65.21 69.66 65.21 65.34L65.21 65.34Q65.21 62.02 63.52 59.19Q61.83 56.36 58.69 54.65Q55.56 52.94 51.28 52.94L51.28 52.94L35.17 52.94ZM35.17 24.30L35.17 46.04L49.87 46.04Q53.45 46.04 56.34 44.63Q59.24 43.22 60.95 40.67Q62.66 38.11 62.66 34.66L62.66 34.66Q62.66 30.34 59.65 27.32Q56.65 24.30 50.13 24.30L50.13 24.30L35.17 24.30Z"></path></svg>